<?xml version="1.0" encoding="utf-8"?>
<!-- Generator: Adobe Illustrator 22.1.0, SVG Export Plug-In . SVG Version: 6.00 Build 0)  -->
<svg version="1.1"
	 id="Layer_1" xmlns:cc="http://creativecommons.org/ns#" xmlns:dc="http://purl.org/dc/elements/1.1/" xmlns:inkscape="http://www.inkscape.org/namespaces/inkscape" xmlns:rdf="http://www.w3.org/1999/02/22-rdf-syntax-ns#" xmlns:sodipodi="http://sodipodi.sourceforge.net/DTD/sodipodi-0.dtd" xmlns:svg="http://www.w3.org/2000/svg"
	 xmlns="http://www.w3.org/2000/svg" xmlns:xlink="http://www.w3.org/1999/xlink" x="0px" y="0px" viewBox="0 0 100 100"
	 style="enable-background:new 0 0 100 100;" xml:space="preserve">
<style type="text/css">
	.st0{fill:#891515;}
	.st1{fill:#FFFFFF;}
</style>
<g transform="translate(0,-952.36216)">
	<g>
		<path class="st0" d="M50,957.9c-17.7,0-32,14.3-32,32s33,58,33,58s8-10.4,15.9-22.9c7.6-12.2,15.1-26.3,15.1-35.1
			C82,972.2,67.7,957.9,50,957.9z M50,964.4c14.1,0,25.5,11.4,25.5,25.5s-11.4,25.5-25.5,25.5s-25.5-11.4-25.5-25.5
			C24.5,975.8,35.9,964.4,50,964.4z"/>
		<circle class="st0" cx="49.8" cy="990.8" r="27.2"/>
	</g>
	<g>
		<path class="st1" d="M34.2,980.7l-0.2,17.4l-3.4,0l0.2-17.4L34.2,980.7L34.2,980.7z"/>
		<path class="st1" d="M39.3,976.5l-0.2,26.1l-3.4,0l0.1-26.3L39.3,976.5z"/>
		<path class="st1" d="M29.1,985l0,8.7l-2.5,0l-2.5-4.4l2.5-4.3L29.1,985z"/>
		<path class="st1" d="M67,981.1l-0.2,17.4l3.4,0l0.2-17.4L67,981.1z"/>
		<path class="st1" d="M62.1,976.6l-0.2,26.1l3.4,0l0.1-26L62.1,976.6z"/>
		<path class="st1" d="M72,985.4l0,8.7l2.5,0l2.5-4.3l-2.5-4.4C74.6,985.6,72,985.4,72,985.4z"/>
		<path class="st1" d="M41.8,987.8l0,3.4l17.4,0.2l0-3.4L41.8,987.8z"/>
	</g>
</g>
</svg>
